<svg width="20" height="20" viewBox="0 0 20 20" fill="none" xmlns="http://www.w3.org/2000/svg">
<g clip-path="url(#clip0_104_2856)">
<path d="M14.5835 12.917C14.5835 13.842 13.8418 14.5837 12.9168 14.5837C11.9918 14.5837 11.2502 13.842 11.2502 12.917C11.2502 11.992 12.0002 11.2503 12.9168 11.2503C13.8335 11.2503 14.5835 12.0003 14.5835 12.917ZM7.0835 11.2503C6.16683 11.2503 5.41683 12.0003 5.41683 12.917C5.41683 13.8337 6.16683 14.5837 7.0835 14.5837C8.00016 14.5837 8.75016 13.842 8.75016 12.917C8.75016 11.992 8.0085 11.2503 7.0835 11.2503ZM19.1668 12.5003V15.0003C19.1668 15.4587 18.7918 15.8337 18.3335 15.8337H17.5002V16.667C17.5002 17.592 16.7585 18.3337 15.8335 18.3337H4.16683C3.7248 18.3337 3.30088 18.1581 2.98832 17.8455C2.67576 17.5329 2.50016 17.109 2.50016 16.667V15.8337H1.66683C1.2085 15.8337 0.833496 15.4587 0.833496 15.0003V12.5003C0.833496 12.042 1.2085 11.667 1.66683 11.667H2.50016C2.50016 8.44199 5.1085 5.83366 8.3335 5.83366H9.16683V4.77533C8.66683 4.49199 8.3335 3.95033 8.3335 3.33366C8.3335 2.41699 9.0835 1.66699 10.0002 1.66699C10.9168 1.66699 11.6668 2.41699 11.6668 3.33366C11.6668 3.95033 11.3335 4.49199 10.8335 4.77533V5.83366H11.6668C14.8918 5.83366 17.5002 8.44199 17.5002 11.667H18.3335C18.7918 11.667 19.1668 12.042 19.1668 12.5003ZM17.5002 13.3337H15.8335V11.667C15.8335 9.36699 13.9668 7.50033 11.6668 7.50033H8.3335C6.0335 7.50033 4.16683 9.36699 4.16683 11.667V13.3337H2.50016V14.167H4.16683V16.667H15.8335V14.167H17.5002V13.3337Z" fill="#475569"/>
</g>
<defs>
<clipPath id="clip0_104_2856">
<rect width="20" height="20" fill="white"/>
</clipPath>
</defs>
</svg>
