<svg width="20" height="20" viewBox="0 0 20 20" fill="none" xmlns="http://www.w3.org/2000/svg">
<g clip-path="url(#clip0_24_63)">
<path d="M9.99995 6.66699C10.884 6.66699 11.7319 7.01818 12.357 7.6433C12.9821 8.26842 13.3333 9.11627 13.3333 10.0003C13.3333 10.8844 12.9821 11.7322 12.357 12.3573C11.7319 12.9825 10.884 13.3337 9.99995 13.3337C9.1159 13.3337 8.26805 12.9825 7.64293 12.3573C7.01781 11.7322 6.66662 10.8844 6.66662 10.0003C6.66662 9.11627 7.01781 8.26842 7.64293 7.6433C8.26805 7.01818 9.1159 6.66699 9.99995 6.66699ZM9.99995 8.33366C9.55792 8.33366 9.134 8.50925 8.82144 8.82181C8.50888 9.13438 8.33328 9.5583 8.33328 10.0003C8.33328 10.4424 8.50888 10.8663 8.82144 11.1788C9.134 11.4914 9.55792 11.667 9.99995 11.667C10.442 11.667 10.8659 11.4914 11.1785 11.1788C11.491 10.8663 11.6666 10.4424 11.6666 10.0003C11.6666 9.5583 11.491 9.13438 11.1785 8.82181C10.8659 8.50925 10.442 8.33366 9.99995 8.33366ZM8.33328 18.3337C8.12495 18.3337 7.94995 18.1837 7.91662 17.9837L7.60828 15.7753C7.08328 15.567 6.63329 15.2837 6.19995 14.9503L4.12495 15.792C3.94162 15.8587 3.71662 15.792 3.61662 15.6087L1.94995 12.7253C1.89895 12.6395 1.88097 12.538 1.89937 12.4398C1.91778 12.3416 1.97131 12.2535 2.04995 12.192L3.80828 10.8087L3.74995 10.0003L3.80828 9.16699L2.04995 7.80866C1.97131 7.7471 1.91778 7.65901 1.89937 7.56085C1.88097 7.46269 1.89895 7.36119 1.94995 7.27532L3.61662 4.39199C3.71662 4.20866 3.94162 4.13366 4.12495 4.20866L6.19995 5.04199C6.63329 4.71699 7.08328 4.43366 7.60828 4.22533L7.91662 2.01699C7.94995 1.81699 8.12495 1.66699 8.33328 1.66699H11.6666C11.875 1.66699 12.05 1.81699 12.0833 2.01699L12.3916 4.22533C12.9166 4.43366 13.3666 4.71699 13.8 5.04199L15.875 4.20866C16.0583 4.13366 16.2833 4.20866 16.3833 4.39199L18.05 7.27532C18.1583 7.45866 18.1083 7.68366 17.95 7.80866L16.1916 9.16699L16.25 10.0003L16.1916 10.8337L17.95 12.192C18.1083 12.317 18.1583 12.542 18.05 12.7253L16.3833 15.6087C16.2833 15.792 16.0583 15.867 15.875 15.792L13.8 14.9587C13.3666 15.2837 12.9166 15.567 12.3916 15.7753L12.0833 17.9837C12.05 18.1837 11.875 18.3337 11.6666 18.3337H8.33328ZM9.37495 3.33366L9.06662 5.50866C8.06662 5.71699 7.18328 6.25033 6.54162 6.99199L4.53328 6.12533L3.90828 7.20866L5.66662 8.50033C5.33328 9.47255 5.33328 10.5281 5.66662 11.5003L3.89995 12.8003L4.52495 13.8837L6.54995 13.017C7.19162 13.7503 8.06662 14.2837 9.05828 14.4837L9.36662 16.667H10.6333L10.9416 14.492C11.9333 14.2837 12.8083 13.7503 13.45 13.017L15.475 13.8837L16.1 12.8003L14.3333 11.5087C14.6666 10.5337 14.6666 9.47533 14.3333 8.50033L16.0916 7.20866L15.4666 6.12533L13.4583 6.99199C12.8035 6.23393 11.9152 5.71505 10.9333 5.51699L10.625 3.33366H9.37495Z" fill="#475569"/>
</g>
<defs>
<clipPath id="clip0_24_63">
<rect width="20" height="20" fill="white"/>
</clipPath>
</defs>
</svg>
